# xmcd
#
# Track frame offsets: 
#        150
#        12312
#        24272
#        32415
#        44625
#        55520
#        64447
#        74840
#        87410
#        96395
#        106462
#        116530
#        125662
#        130710
#        138457
#
# Disc length: 1969 seconds
#
# Revision: 0
# Processed by: cddbd v1.5.2PL0 Copyright (c) Steve Scherf et al.
# Submitted via: ExactAudioCopy v0.99pb3
#
DISCID=d907af0f
DTITLE=Various Artist - Bloodshot Revival
DYEAR=2001
DGENRE=Country
TTITLE0=Pee wee King - Ramblin' Blues
TTITLE1=Hank Penny - Rabbits Don't Ever Get Married
TTITLE2=Rex Allen - The Girl I Left Behind
TTITLE3=Johnny Bond - Heart and Soul
TTITLE4=Spade Cooley - Swinging the Devil's Dream
TTITLE5=Hank Thompson - Rub a Dub
TTITLE6=Jimmie Davis - You Won't Be Satisfied That Way
TTITLE7=Hank Penny - Flamin' Mamie
TTITLE8=Johnny Bond - Ten Years
TTITLE9=Pee Wee King - You Tried to Ruin My Name
TTITLE10=Spade Cooley - Better Do It Now
TTITLE11=Hank Thompson - I'm a Fool to Fool Around With You
TTITLE12=Jimmie Davis - Bang Bang
TTITLE13=Rex Allen - Ridin' Down to Mexico
TTITLE14=Sons of the Pioneers - Happy Cowboy
EXTD=
EXTT0=
EXTT1=
EXTT2=
EXTT3=
EXTT4=
EXTT5=
EXTT6=
EXTT7=
EXTT8=
EXTT9=
EXTT10=
EXTT11=
EXTT12=
EXTT13=
EXTT14=
PLAYORDER=
